<svg xmlns="http://www.w3.org/2000/svg" version="1.0" viewBox="0 0 2048 2048"><path d="M983.7 303.3c-57.4 57.6-74.4 77-103.4 117.7-51.9 73.1-77.1 125.2-82.7 171l-1.1 9.5-7.5.7c-37 3.7-84.7 22.7-136 54-11.8 7.3-13.3 8.2-38 24.9-27.4 18.6-54.3 39.2-74.2 56.7-8.8 7.9-79.9 79.4-83.8 84.5-2.9 3.7-2.7 4 17 24.1 8.6 8.9 19.9 20.6 25.1 26.1 31.7 33.4 54.1 53 94.1 82.3 13.8 10.1 56.9 38.9 65.3 43.6 1.7.9 5.7 3.3 9 5.2 41.1 23.9 90.1 42 119.3 44.1 9.7.7 9.6.5 10.5 12.6.9 10.3 9.8 45.2 12.7 49.2.4.5 1.7 3.9 3 7.5 5.6 15.9 25.8 55.8 40.7 80.3 21.2 35 48.8 72.4 75.8 102.7 16.4 18.5 90.2 91.9 93.1 92.6 1.5.4 3.3-.1 5.1-1.4 4.8-3.4 87.3-87.1 96.4-97.7 47.8-55.7 86.4-117.6 111.7-179 6.5-15.8 14.9-48.2 15.3-59.3.3-6.4-1-5.6 12.9-7.6 46.5-6.7 97.3-29.6 160.8-72.5 4.6-3.1 9.8-6.4 11.5-7.5 9-5.2 45.3-32.8 62.2-47.1 24.8-21.1 93.5-91.6 93.5-95.9 0-1.6-28-30.8-60.9-63.5-16.1-16-33.8-31.7-51.5-45.6-4.8-3.9-11.4-9-14.5-11.5-12.6-10.2-47.7-34.3-64.9-44.7-6.3-3.7-12.6-7.5-14-8.4-25.7-15.6-56.1-30-79-37.3-21.5-6.9-27-8.3-42-10.8-15.5-2.5-15.2-2.3-15.2-10 0-5.5-4.3-24.7-8-36.3-18.1-56.2-64.2-129.1-127-201-12.7-14.5-89.1-91.5-90.8-91.5-.7 0-18.9 17.7-40.5 39.3m30.5 116c.2 63.6 0 115.7-.4 115.7-.3 0-1-1.2-1.6-2.8-2.5-7.2-16.8-23.5-43.5-49.4-29.1-28.3-34.5-34.8-39.7-47.7-7.2-17.6-1.7-40.5 15-63.1 7.3-9.7 69.4-71.9 69.7-69.8.2.7.4 53.4.5 117.1m49.1-90.4c15.5 15.4 30.5 30.7 33.2 34.1 2.8 3.4 6.7 8.3 8.7 10.8 13.5 16.7 20.1 42.8 14.9 58.5-4.3 13-10.1 20-41.6 51.2-26.8 26.5-40.1 41.5-41.9 47.2-.4 1.1-1.3 2.6-2 3.2-1.1.9-1.3-19.5-1.2-115.9.1-64.3.5-117 .9-117 .5 0 13.5 12.6 29 27.9M911.9 444.1c1.7 4.2 4.4 9.6 6 12 3.8 6 23.8 27.4 35.8 38.4 46.3 42.2 59.1 66.6 60.7 115.8l.7 18.9-4.3-.7c-20.2-3.4-47.6-21.8-81.1-54.4-21.6-21-37.5-45.9-43.3-67.6-3.9-14.4-1.9-46.1 3.6-57.4.4-.9 1.9-4.2 3.4-7.4 1.4-3.1 3.8-7.6 5.3-10 1.5-2.3 3.2-5.1 3.8-6.2 4-7.1 3.9-7.2 5.1 2.2.7 5.6 2.3 11.6 4.3 16.4m241.5-3.6c18.9 38.6 11.7 79.5-20.9 118.5-14.3 17.1-43.6 43-61.4 54.5-13 8.3-30.2 15.5-37 15.5-2.2 0-.8-35 1.9-47.3 7.1-32.3 16.4-46.2 59.5-89.1 29.5-29.4 32.8-33.2 38.2-44.1 5-10 6.9-16.9 7.2-26.5l.1-3.5 4 6.5c2.2 3.6 6 10.5 8.4 15.5M865 486.7c0 20.6 7.8 44.6 20.7 63.9 18.4 27.7 63.9 70.3 88.6 83.1l3 1.5-14 4.8c-7.7 2.6-14.9 5.3-16.1 5.9-3.5 1.8-4.7 1.4-14.2-5.4-26.7-18.8-66.8-33.6-104-38.4l-13.5-1.7.3-3.5c2.5-25.8 18-66.4 39.1-102.4 2.3-3.9 5.1-8.9 6.3-11.3 3.1-5.9 3.8-5.3 3.8 3.5m320.5-4.8c.3 1.6 1.3 3.5 2 4.1.8.7 2.1 2.4 2.9 3.9.7 1.4 4.1 7.8 7.5 14.1 20.4 38.3 30.8 66.5 33.7 91.1l.6 5.5-11.3 1.3c-36.7 4.1-77.7 18.7-103.8 36.8-13 9-12.8 9-20.2 6-3.5-1.4-10.7-4-16-5.8l-9.7-3.2 10.8-7.2c19.4-13 43.6-34 59.5-51.8 3.9-4.3 7.5-8.4 8.1-9 13.9-15.5 26.9-41.1 30.9-61.3 2.3-11.8 2.3-12.3 2.4-20.2.1-7.3 1.4-9.6 2.6-4.3M827 621c36.8 5.4 64.8 15.2 90.7 31.7 7.2 4.6 7.2 4.4-2.5 10.8-20.6 13.7-44.8 38.1-59.8 60.4l-2.1 3.1-5.6-8.2c-18.2-27-32.7-69.1-32.7-95.4 0-3.9.9-4 12-2.4m405 2.8c0 10.9-4.7 35.4-9.6 50-5.1 15.4-25 52.2-28.2 52.2-.5 0-3.2-3.5-6.2-7.8-10.2-14.7-21.2-26.8-38.4-42.1-6.4-5.6-22.8-17.1-24.6-17.1-3 0-.1-3.3 6.4-7.4 26.7-16.7 61.4-28.2 93.1-30.9 2.2-.2 4.8-.4 5.8-.5 1.3-.2 1.7.6 1.7 3.6m42.9.2c11.3 2.5 28.3 7.3 35.5 10.1 21.8 8.6 66.6 31.4 66.6 33.9 0 .4-6 1-13.2 1.2-26.4 1.1-55 13.1-79.4 33.4-21.6 17.9-49 48.5-62.9 70.1-2.2 3.5-4.3 6.3-4.6 6.3s-1.6-3.5-2.8-7.8c-1.2-4.2-3.9-11.7-5.8-16.7-3.2-8-3.4-9.2-2.2-11.2.8-1.2 4.5-6.8 8.2-12.4 19-28 34.2-68.8 36.3-96.7.5-6.5.8-9.5 1.3-13.3.1-.8 12.2.8 23 3.1m-478.3 1.5c1.4 20.1 2.8 27.8 9 48 7.2 23.7 17.3 43.4 34.2 66.9 3.4 4.6 3.5 5 2.2 8-.7 1.7-3.4 9.2-5.9 16.6s-4.6 13.7-4.8 13.9c-.3.4-3.3-2.5-3.3-3.3 0-.2-2-3.4-4.5-7.1-14-20.4-39.6-48.7-58.5-64.8-9.4-7.9-39-26.3-39-24.2 0 .3-1-.1-2.2-.9-7-4.4-26.1-8.9-40.6-9.5l-14.4-.6 6.9-4c3.7-2.1 8.2-4.7 9.8-5.6 1.7-.9 5.4-3.1 8.4-4.8 4.6-2.8 15.5-7.9 32.6-15.5 20.5-9.1 52.9-17.7 64.9-17.3l4.9.2zm256.4 25.4c15.1 2.8 35 9.1 35 11.1 0 .5-1.1 1.7-2.5 2.6-2.8 1.8-20.4 21.5-28.1 31.4-11.6 14.8-19.6 29.1-27.4 49.1-2.9 7.4-5.5 13.8-5.7 14.3-.3.4-2.9-5-5.8-12-12.5-31-26.9-53.5-47.9-75.2-6.5-6.7-9.6-10.6-9-11.2 3.3-3.3 30.4-10.2 48.4-12.4 8.1-1 32 .3 43 2.3m-103.9 26.5c23.2 20.4 43.4 51.5 54.3 83.6 6.1 18.2 12.8 53.1 10.5 54.6-1 .6-30.6-3.3-39.2-5.2-34-7.5-83.3-36.9-104.5-62.1l-4.2-5.1 6.1-9.3c15.3-23.5 34-42.1 57.1-57.2 3.2-2 6.2-3.7 6.7-3.7s1.4-.7 2.1-1.5c1.8-2.2 2-2.1 11.1 5.9m174.6 2.8c19.9 13.3 40.3 34.6 52.8 55.2 5.5 8.9 5.7 8.1-5.7 19.2-26.8 26.2-61.6 46.4-93.7 54.5-13.2 3.3-42.1 7.3-43.4 6-2.5-2.5 6.7-46.4 13-62 7.8-19.4 21.6-43.1 30.5-52.5.7-.8 4.2-4.9 7.8-9.1 3.6-4.3 10.1-10.9 14.4-14.6l8-6.8 4.5 2.7c2.5 1.4 7.8 4.8 11.8 7.4m-431.3 8.3c21.8 4.2 45.2 15.8 61.6 30.6 36.1 32.5 58.5 61.9 68.9 90.1l2.1 5.8h-20.9c-24.2 0-33.9-1.3-47.1-6.5-21.2-8.3-37.5-20-60.7-43.6-33-33.7-33.3-33.9-46.2-42.6-11.3-7.6-21-11-32.9-11.5-4.5-.1-8.2-.5-8.2-.9 0-.8 15-9.5 22-12.7 18.9-8.6 43.6-12.1 61.4-8.7m692.6-.1c18 2.6 33 7.9 46.5 16.7 8.1 5.2 8.1 5.4-.4 5.6-23.3.6-36.6 9.6-78.1 52.6-23.8 24.7-44.9 39.5-66.5 46.5-11.9 3.9-22.2 5.2-44.3 5.5-21 .2-19.8.9-16.1-9.8 4.7-14 9.4-22.1 21.3-37 31.4-39.5 56.7-61.4 85.1-73.5 7.4-3.2 16.8-5.6 28.5-7.4 5.5-.8 15-.5 24 .8m-759.4 42.1c12.4 3.7 18.1 8.2 52.4 41.9 25.4 25 34.1 32.6 44.8 39.1 3.4 2.1 6.2 3.8 6.2 3.9 0 .2-215.7-.4-227-.7l-11.5-.2 16-16.3c18.1-18.5 33.6-33.8 41-40.3 2.7-2.4 6.1-5.4 7.5-6.7 19.9-17.9 50.1-26.8 70.6-20.7M1447 729c11.8 1.8 29.3 9.2 38.4 16.2 9.6 7.4 74 69.9 72.3 70.3-.1 0-53.7-.2-119.1-.5l-119-.5 4.5-2.3c8.3-4.3 22.4-16.6 47.9-41.7 41.6-41 49.5-45.4 75-41.5m-581.4 40.8c19.1 18.6 47.3 37.5 68.9 46.1 1.1.5 3.3 1.4 4.9 2 1.7.7 7.3 2.6 12.5 4.3l9.5 3-8.9 3.3c-11.3 4-33.8 14.4-40.5 18.6-.8.5-5.5 3.4-10.5 6.4-11.4 7.1-25.7 18.6-36.1 29.2l-8.1 8.2-2.1-4.7c-13.2-29.8-15-73-4.4-106.7 2.2-6.9 6.1-17.2 6.8-17.5 0 0 3.6 3.5 8 7.8m327.7-.6c13.3 37.8 13.8 73.4 1.6 110.8-1.7 5.2-3.4 9.8-3.8 10.3-.4.4-3.4-2.1-6.7-5.5-24.1-25-61.5-48.1-94.8-58.5-2.8-.9-2.5-1.1 5.5-3.7 12.6-4.1 27.4-10.4 36.4-15.6 4.4-2.5 9.1-5.3 10.5-6.1 1.4-.7 2.7-1.7 3-2s4.3-3.1 9-6.3c12.1-8.1 18.4-13.2 27.5-22.5 4.4-4.4 8.3-8.1 8.6-8.1.4 0 1.8 3.3 3.2 7.2M720.5 835h8l-4.7 2.8c-10.4 6.1-22.5 16.8-47.3 41.8-14.3 14.3-28.2 27.6-31 29.4-2.7 1.9-6.2 4.2-7.6 5.1-9.7 6.5-35.2 8.9-47.9 4.5-22.7-7.8-36.9-17.9-62-44-8-8.2-19.8-20.4-26.2-27L490 835.5l5.8-.5c4.3-.4 171.8-.4 224.7 0m104.2.4c1.8 1.8-11.8 31.3-18.4 40.1-23.4 30.8-48.3 55.5-68.2 67.7-43 26.4-81 26.4-126.1-.1l-4.5-2.6 8-.6c23.1-1.8 39.9-11.6 65-37.8 31.6-33.1 43.8-43.9 59-52.1 3.3-1.8 6.5-3.6 7-4 1.9-1.5 14-6 22-8.2 9.3-2.5 54.2-4.4 56.2-2.4m731.9-.2c.4.4-3.4 4.9-8.3 10s-14.3 14.9-20.9 21.7c-28.9 30.2-40.2 39.3-58.2 47-14 6-21.5 7.5-34.6 6.8-21.3-1.1-26.2-4.3-61.6-39.8-26.6-26.8-40.7-38.9-50.7-43.7-3.5-1.6-2.3-1.7 36.8-2.2 61.1-.8 196.6-.6 197.5.2m-542.6 4.7c0 11.8-6.8 42-13.2 58.1-11.6 29.6-27.3 52.2-53.1 76.9l-6.8 6.5-5.5-2.8c-20.8-10.1-63.9-53-68.8-68.2-1.1-3.7 26.5-29.4 42.9-40 29.8-19.2 73.8-34.5 101.3-35.3 3.2-.1 3.2-.1 3.2 4.8m36.6-3c17 2.4 32.2 6.6 48.9 13.6 8.6 3.5 24.8 11.3 29 13.8 17.3 10.6 27 18.1 41.4 32.3l12.4 12.2-2.8 4.8c-13.4 22.9-41.8 50.7-65.6 64.2-7.5 4.2-6.9 4.4-17.1-5.6-36.5-35.6-58.6-81.4-63.2-131-.7-7.4-2.3-6.9 17-4.3m226.2.6c28 6.4 43.8 17.2 83 56.5 14.7 14.7 29.3 28.6 32.4 30.9 12.9 9.3 28.5 15.1 41.2 15.1h6.1l-2.5 2c-1.4 1.1-7.2 4.4-13 7.4-33.5 17.3-62.6 18.2-97.2 3.2-18.2-7.9-46.7-30.9-64.8-52.2-3.6-4.2-7.2-8.4-8.1-9.3-13.5-14.6-30.9-45.2-30.9-54.6 0-2.8 40.3-2.1 53.8 1M833 879.7c2.7 8.3 5.6 16.3 8.2 22.4l2 4.5-7.1 10.6c-3.9 5.9-7.1 10.9-7.1 11.1 0 .3-1.7 3.4-3.8 6.8-12.8 21.2-28.2 66.7-28.2 83.5 0 12.8-.4 12.9-19.3 9.4-25.6-4.9-60.3-18.3-88.2-34.1-24.3-13.7-23.6-12.9-10.7-12.9 25.8 0 58.3-11.7 78.9-28.4 1-.8 5.2-4.2 9.3-7.5 10.8-8.7 20.8-18.5 36.6-36.2 4.8-5.3 19.2-24.8 22.7-30.7 4-6.6 4.1-6.6 6.7 1.5m388-1.7c13.1 19.5 36.3 46.9 50 59 4 3.6 8.1 7.2 9 8.1 5.5 5.2 23.2 16.7 33.8 22 21 10.4 36.5 14.2 55.7 13.7 6.3-.2 11.5 0 11.5.4 0 .5-.4.8-1 .8-.5 0-5.1 2.5-10.2 5.6-34 20.7-87.9 40.8-113.8 42.6l-4.5.3-.2-5.5c-1.4-31-20.3-82.5-39.2-106.9-7.1-9.2-8-13.3-4.1-18.6.4-.6 2.7-6.8 5.1-13.9 3.3-10 4.5-12.5 5.3-11.3.6.8 1.8 2.5 2.6 3.7m-195.5 15.2c2.4 11.3 21.1 49.1 28.9 58.4.8 1.1 3.8 5 6.6 8.9 2.7 3.8 10.2 12.2 16.6 18.6l11.5 11.6-12.3 4.1c-35 11.6-69.6 11.8-105 .5-6.5-2.1-11.8-4.2-11.8-4.8 0-.5 3.7-4.6 8.2-9 15.6-15.4 33.3-40 42.1-58.5 4.9-10.3 10.3-23.5 11.6-28.3 1.6-5.5 2.7-6 3.6-1.5m-153.9 56.5c13.3 15.3 27.2 27.7 42.9 38.2 4.4 3 8.2 5.6 8.5 5.8.7.6-3.8 4-8.5 6.5-2.2 1.1-4.2 2.4-4.5 2.8-2.3 3.3-38 17.6-55 21.9-10.1 2.5-16 3.5-35.9 5.6l-4.4.5.7-7.1c2.8-28.5 16.7-66.8 32.8-90.7l5-7.3 5.8 8c3.3 4.4 8.9 11.5 12.6 15.8M1204 941c12.6 21.9 19 37.2 24 58 2.7 10.9 5.7 30.7 4.8 31.5-.8.8-23.1-1.7-31.8-3.6-18.2-4-39.1-11.6-56-20.5-17.9-9.3-22.5-12.3-20.2-13.1.7-.3 2.5-1.5 4-2.7 1.5-1.3 4.3-3.1 6.2-4.2 1.9-1 4.7-2.8 6.2-3.9 1.4-1.1 4.1-3.1 5.9-4.5 13.8-10.4 28.5-26.1 42.4-45.3 5.8-8 4.9-8.6 14.5 8.3m-254.8 65.4c2.9 1.3 10.4 4.1 16.6 6.2l11.2 3.8-4.8 3.1c-2.6 1.6-7.7 4.9-11.3 7.2s-8.6 5.9-11.1 8-6.1 4.9-7.9 6.3c-8 5.9-41.7 40.9-47.9 49.7-18.3 26.1-26.2 46.3-28.4 73.3l-1.2 14.5-3.7-7c-2-3.9-5.9-11.1-8.7-16-11.3-20.1-25-52-29.8-69.5-3.4-12-7.2-30-7.2-33.5v-3.3l8.8-.6c40.1-3.2 85.6-19.6 113.8-41.2 5.4-4.1 5-4 11.6-1m160.5 1c4.6 3.3 7.9 5.3 26.3 15.8 22.8 13 58.1 23.2 87.8 25.4l9.4.7-.7 5.1c-1.2 9.3-6.6 31.4-10.1 41.9-6.1 17.6-16.3 39.7-31.7 68.6l-7.2 13.5-1.1-13c-2.7-30.7-11.8-52.3-34.3-82-14.4-18.9-56.8-56.5-73.3-65-4.2-2.2-3.7-2.6 8.5-6.3 6.1-1.9 13.2-4.5 15.7-5.7 5.7-2.9 5.2-3 10.7 1m-95.1 35.8c-1.7 48.5-14.2 72.7-59.6 115.1-37.5 35-47.9 51.4-48 75.2 0 9.2-1.3 7.8-11.8-13-23-45.3-11.2-95.1 33.1-140.4 32.5-33.2 66.7-56.2 84.6-57l2.4-.1zm36.9-14.8c8.6 3.7 23.6 12.5 29.4 17.2 30 24.4 48.8 43.3 60.8 61 27.8 40.9 29.2 84.7 4.3 125.9-1.7 2.7-3.3 5.6-3.6 6.2-1.3 2.8-2.1 1-1.7-3.7.7-7.5-2.1-19.4-6.9-29-6.9-13.6-15.4-23.5-44.8-51.6-23.4-22.5-34.7-36.2-42.4-51.9-10.4-20.8-12.4-29.8-13.3-58.7l-.6-21.1 4.4.7c2.4.4 8.9 2.6 14.4 5m-37.3 211.3c.2 65.6.1 119.3-.1 119.3-1.9 0-63.6-64.1-69-71.6-20.9-29.4-24.7-55.4-11.4-78.4 2.9-5 10.7-13.4 33.4-36 16.2-16.2 30.5-30.9 31.8-32.5 1.2-1.7 4-5.5 6.2-8.5 2.3-3 5.1-7.2 6.3-9.2 1.1-2.1 2.2-3.4 2.3-3s.3 54.4.5 119.9m32.3-102.2c4 4.9 14.6 16.2 23.6 25 41.4 40.6 44.4 44.1 49.4 59.3 6.4 19.2-.5 43.3-19.6 68.7-3.9 5.2-19.4 21.7-36.6 39l-30 30 .1-120.1.1-120 2.9 4.5c1.5 2.5 6.1 8.6 10.1 13.6M763 1558.9c-30.9 8-50.6 32.1-51.8 63.8-1.8 47.5 39.4 79.1 89.5 68.7 59.8-12.3 73-93.1 20.3-124.4-15.8-9.5-39.6-12.8-58-8.1m27 21.1c15 2.4 27 11.5 33.8 25.8 4.9 10.3 5.4 27.6 1.1 37.4-11 25.3-38.9 35.1-63.8 22.7-37.9-18.9-28.9-78.9 12.9-85.8 7.6-1.2 8.6-1.2 16-.1m484.9-21c-20.8 5.2-36.7 18.3-45.9 37.5-5.1 10.8-6.2 15.9-6.1 29.5.1 30.5 17.2 53.8 46.8 63.8 12.4 4.2 38.1 4 50.3-.4 54.2-19.2 61.7-90.8 12.9-122.4-14.1-9.1-39.8-12.7-58-8m34.8 23.1c44.8 15.3 36.1 85.3-10.9 88.6-38.2 2.8-61.8-34.2-44.2-69 9.2-18 34-26.8 55.1-19.6m-961.4-23.3-3.3.3v42.2c0 54.5 1.3 60.9 15 75.1 10.8 11.3 21.5 15.5 41.5 16.3 22 .9 34.6-3.2 46.3-14.9 14.2-14.1 15.5-20.3 15.6-75.5l.1-43.3-3-.6c-1.7-.3-6.5-.3-10.6 0-4 .2-8.4.5-9.6.5l-2.3.1v41.9c0 46.5-.4 49.8-6.9 58.9-10.3 14.2-38.7 14.9-51.4 1.3-8-8.5-8.1-9.3-8.7-59.1l-.5-43.5H361c-5.2 0-11 .1-12.7.3m152.1.6c-.2.6-.3 30.6-.2 66.6l.3 65.4 2.8-.1c1.5-.1 7.1-.1 12.5-.2l9.7-.1-.1-42.5c0-23.4.3-42.4.7-42.3.8.3 26.9 31.3 41.9 49.8 19.9 24.7 28.5 34.5 30.4 35.3 2.5 1 18.5.7 19.1-.3.9-1.4.8-131.1-.1-132-.5-.4-6.2-.6-12.6-.3l-11.8.6-.1 39.6c-.1 21.8 0 41.1.1 42.8.1 1.8-.1 3.3-.3 3.3-.7 0-19.5-22.7-39.8-48-9.1-11.3-19.8-24.7-23.9-29.8l-7.5-9.2-10.4.2c-6.1.1-10.5.6-10.7 1.2m155.6 65.2v66.2l2.7.5c1.5.3 7.2.4 12.8.4l10-.2.3-66.3c.2-62.5.1-66.2-1.5-66.3-1-.1-6.9-.2-13-.3l-11.3-.1zm326.8-65.9c-.9.2-3.1 3.9-5.1 8.6-2 4.5-6.8 15.4-10.7 24.2-10.8 24-44 99.4-44 99.9 0 .7 16.7.6 22.2 0 4.4-.5 4.7-.8 6.6-5.2 1.1-2.6 3.9-9.3 6.2-15l4.3-10.2h64.7l2.9 6.2c1.6 3.5 4.3 9.9 6.1 14.3s3.7 8.6 4.3 9.2c1 1.3 25.7 1.9 26.9.7.4-.3-1.4-4.9-3.9-10.2s-8.3-18.3-13-28.7c-4.6-10.5-9.2-20.6-10.2-22.5s-7.3-15.9-14-31-13.6-30.4-15.4-34l-3.2-6.5-11.5-.1c-6.3-.1-12.3 0-13.2.3m17 38.5c2.8 6.8 7.9 18.6 11.2 26.3 3.4 7.7 6.4 14.6 6.7 15.2.4 1-4.5 1.3-22.7 1.3h-23.1l.7-2.3c.8-2.5 7.9-19.9 14.9-36.2 2.5-6.1 5.1-12.2 5.7-13.8 1.4-3.7 1-4.2 6.6 9.5m90.4-38.2c-.4.3-.6 30.3-.4 66.8l.2 66.3 12.3-.3 12.2-.3.3-19.3.2-19.2h34.9l7.7 11.2c4.3 6.2 9.6 14 11.8 17.3 7.3 11.1 6.1 10.5 21.3 10.5 7.3 0 13.3-.2 13.3-.5s-5.5-8.5-12.3-18.3c-12.2-17.6-16.7-24.4-16.7-25.5 0-.3 2.2-1.9 4.9-3.6 27.2-17.5 28-58 1.5-75.6-13.1-8.7-14.3-8.9-54.7-9.5-19.8-.3-36.2-.3-36.5 0m68.3 23.7c14.1 4.8 20.3 20.7 13.5 34.8-5.2 10.7-13.3 13.5-38.7 13.5H1115v-50h19.3c15.4 0 20.3.3 24.2 1.7m235.9-23.2c-.2.5-.3 30.5-.2 66.5l.3 65.5h24v-41.8c0-22.9.2-41.7.5-41.7.3.1 9.5 15.2 20.5 33.6 11 18.5 20.8 34 21.7 34.5s4.2.9 7.2.9h5.5l3.9-6.8c2.1-3.7 6.1-10.5 8.7-15.2 2.7-4.7 8-13.9 11.9-20.5 3.8-6.6 8.7-15.2 10.8-19.2 2.2-4 4.3-7.5 4.8-7.8.6-.4 1 15.1 1 42v42.6l12.3-.3 12.2-.3v-66.3l.1-66.2H1517l-2.6 5.2c-1.5 2.9-5.2 9.3-8.2 14.3-3 4.9-12.7 21.4-21.4 36.5-16.1 27.9-17.7 30.4-18.4 28.5-.4-1.1-9.4-16.3-36-61.2l-14.4-24.1-10.6.1c-6 .1-10.8.6-11 1.2m224.5 1.4c-1.6 4-14.2 32.6-23.2 52.1-4.4 9.6-11.9 26.5-16.7 37.5-4.9 11-10.9 24.5-13.4 29.9-2.6 5.5-4.5 10-4.4 10.2.3.2 21.6.7 24.9.5 1.2-.1 3.6-4.7 8-15.1l6.4-15 32.5.2 32.5.3 6 14c3.3 7.7 6.4 14.6 6.8 15.2 1.3 2 26.7 1.8 26.7-.2 0-1.3-9.8-23.4-25-56.5-3.1-6.9-8.1-18.1-11.1-24.9s-9.3-21-14-31.5l-8.6-19.1-13.2-.1-13.2-.2zm25.6 51.6c5.9 13.7 10.9 25.6 11.2 26.2.4 1-4.5 1.3-22.6 1.3-12.7 0-23.1-.2-23.1-.5s4-9.9 8.8-21.3c4.9-11.4 9.9-23.3 11.2-26.5 1.2-3.2 2.6-5.5 3.1-5 .4.4 5.5 12 11.4 25.8"/></svg>